<svg width="66" height="46" viewBox="0 0 66 46" fill="none" xmlns="http://www.w3.org/2000/svg">
<path d="M13.4621 16.7111L23.2967 0.256514L23.7488 -0.5H22.8675H16.2892H16.006L15.8603 -0.257133L1.4507 23.7735L1.37952 23.8922V24.0306V24.0546C0.131036 26.3307 -0.5 28.6715 -0.5 31.0714C-0.5 35.0799 0.908847 38.5224 3.71615 41.3713L3.72277 41.3781L3.72963 41.3845C6.64419 44.1273 10.1613 45.5 14.253 45.5C18.2445 45.5 21.6598 44.1242 24.4699 41.378C27.3837 38.5306 28.8494 35.0861 28.8494 31.0714C28.8494 27.0594 27.3853 23.6644 24.47 20.9178C21.6625 18.072 18.2474 16.6429 14.253 16.6429H14.2308L14.2088 16.6448L13.4621 16.7111ZM50.747 16.6429H50.7226L50.6984 16.6452L50.1182 16.7019L59.9473 0.256514L60.3994 -0.5H59.5181H52.7831H52.4984L52.3531 -0.255069L38.1001 23.7755L38.0301 23.8935V24.0306V24.0399C36.6755 26.2247 35.994 28.5715 35.994 31.0714C35.994 34.988 37.4626 38.3804 40.3734 41.2249C43.284 44.0693 46.75 45.5 50.747 45.5C54.8432 45.5 58.313 44.0726 61.1239 41.2217C64.0325 38.3778 65.5 34.9865 65.5 31.0714C65.5 27.0594 64.0359 23.6644 61.1206 20.9179C58.3103 18.0691 54.8416 16.6429 50.747 16.6429Z" stroke="white"/>
</svg>
